<svg xmlns="http://www.w3.org/2000/svg" width="33" height="32" fill="none" viewBox="0 0 33 32"><path fill="#4BB543" d="M14.9547 23.1493L14.8169 22.9146C12.7123 19.3287 7.11959 11.719 7.0631 11.6426L6.98242 11.533L8.88784 9.64989L14.9193 13.8615C18.7169 8.93358 22.2598 5.54884 24.5709 3.57229C27.0989 1.41014 28.7445 0.414751 28.7611 0.405213L28.7985 0.382812H32.0307L31.7219 0.657766C23.7817 7.73014 15.1753 22.7618 15.0896 22.9128L14.9547 23.1493Z"/><path fill="#4BB543" fill-opacity=".24" d="M29.1242 12.6191C28.2035 12.6191 27.4532 13.3671 27.4532 14.2852V24.3494C27.4532 26.7294 25.5093 28.6675 23.122 28.6675H7.67325C5.28602 28.6675 3.34212 26.7294 3.34212 24.3494V8.94704C3.34212 6.56699 5.28602 4.62895 7.67325 4.62895H19.0979C20.0186 4.62895 20.7689 3.88093 20.7689 2.96291C20.7689 2.04489 20.0186 1.29688 19.0979 1.29688H7.67325C3.44444 1.29688 0 4.73095 0 8.94704V24.3494C0 28.5655 3.44444 31.9995 7.67325 31.9995H23.122C27.3509 31.9995 30.7953 28.5655 30.7953 24.3494V14.2852C30.7953 13.3671 30.045 12.6191 29.1242 12.6191Z"/></svg>